<mxfile host="app.diagrams.net" modified="2022-12-01T15:06:11.936Z" agent="5.0 (Windows NT 10.0; Win64; x64) AppleWebKit/537.36 (KHTML, like Gecko) Chrome/108.0.0.0 Safari/537.36" version="20.6.0" etag="-mIeVQ5n93KAFo90CbA1" type="github">
  <diagram id="Xtzwa6VVvoEg-6TvjeYF" name="Page-1">
    <mxGraphModel dx="865" dy="514" grid="1" gridSize="10" guides="1" tooltips="1" connect="1" arrows="1" fold="1" page="1" pageScale="1" pageWidth="827" pageHeight="1169" math="0" shadow="0">
      <root>
        <mxCell id="0" />
        <mxCell id="1" parent="0" />
        <mxCell id="zvh0BNXRaEqvuYk_ANei-2" value="Game" style="swimlane;fontStyle=1;align=center;verticalAlign=top;childLayout=stackLayout;horizontal=1;startSize=26;horizontalStack=0;resizeParent=1;resizeParentMax=0;resizeLast=0;collapsible=1;marginBottom=0;" parent="1" vertex="1" collapsed="1">
          <mxGeometry x="434" y="120" width="70" height="30" as="geometry">
            <mxRectangle x="434" y="120" width="160" height="540" as="alternateBounds" />
          </mxGeometry>
        </mxCell>
        <mxCell id="zvh0BNXRaEqvuYk_ANei-3" value="-player1&#xa;-player2&#xa;-currentPlayer&#xa;-length&#xa;-numGuesses&#xa;-numRounds&#xa;-duplicatesAllowed&#xa;-colourNum&#xa;-player1RoundWins&#xa;-player2RoundWins&#xa;-winner&#xa;-board" style="text;strokeColor=none;fillColor=none;align=left;verticalAlign=top;spacingLeft=4;spacingRight=4;overflow=hidden;rotatable=0;points=[[0,0.5],[1,0.5]];portConstraint=eastwest;" parent="zvh0BNXRaEqvuYk_ANei-2" vertex="1">
          <mxGeometry y="26" width="160" height="184" as="geometry" />
        </mxCell>
        <mxCell id="zvh0BNXRaEqvuYk_ANei-4" value="" style="line;strokeWidth=1;fillColor=none;align=left;verticalAlign=middle;spacingTop=-1;spacingLeft=3;spacingRight=3;rotatable=0;labelPosition=right;points=[];portConstraint=eastwest;" parent="zvh0BNXRaEqvuYk_ANei-2" vertex="1">
          <mxGeometry y="210" width="160" height="8" as="geometry" />
        </mxCell>
        <mxCell id="zvh0BNXRaEqvuYk_ANei-5" value="-createBoard()&#xa;+getCurrentPlayer()&#xa;+getPlayer1()&#xa;+getPlayer2()&#xa;+getLengthOfCode()&#xa;+getNumRounds()&#xa;+getColourNum()&#xa;+getDuplicatessAllowed()&#xa;+getBoard()&#xa;+getWinner()&#xa;+switchPlayer()&#xa;+getNextGuess()&#xa;+setBoardCode()&#xa;+makeGuess()&#xa;+playGameRound()&#xa;+displayBoard()&#xa;+displayRoundWinner()&#xa;+displayWinner()&#xa;+displayRoundNumber()&#xa;+updatePlayerStats()&#xa;+run()" style="text;strokeColor=none;fillColor=none;align=left;verticalAlign=top;spacingLeft=4;spacingRight=4;overflow=hidden;rotatable=0;points=[[0,0.5],[1,0.5]];portConstraint=eastwest;" parent="zvh0BNXRaEqvuYk_ANei-2" vertex="1">
          <mxGeometry y="218" width="160" height="322" as="geometry" />
        </mxCell>
        <mxCell id="zvh0BNXRaEqvuYk_ANei-6" value="Terminal" style="swimlane;fontStyle=1;align=center;verticalAlign=top;childLayout=stackLayout;horizontal=1;startSize=26;horizontalStack=0;resizeParent=1;resizeParentMax=0;resizeLast=0;collapsible=1;marginBottom=0;" parent="1" vertex="1" collapsed="1">
          <mxGeometry x="289" y="280" width="90" height="30" as="geometry">
            <mxRectangle x="289" y="280" width="160" height="60" as="alternateBounds" />
          </mxGeometry>
        </mxCell>
        <mxCell id="zvh0BNXRaEqvuYk_ANei-8" value="" style="line;strokeWidth=1;fillColor=none;align=left;verticalAlign=middle;spacingTop=-1;spacingLeft=3;spacingRight=3;rotatable=0;labelPosition=right;points=[];portConstraint=eastwest;" parent="zvh0BNXRaEqvuYk_ANei-6" vertex="1">
          <mxGeometry y="26" width="160" height="8" as="geometry" />
        </mxCell>
        <mxCell id="zvh0BNXRaEqvuYk_ANei-9" value="-getPlayerInput()" style="text;strokeColor=none;fillColor=none;align=left;verticalAlign=top;spacingLeft=4;spacingRight=4;overflow=hidden;rotatable=0;points=[[0,0.5],[1,0.5]];portConstraint=eastwest;" parent="zvh0BNXRaEqvuYk_ANei-6" vertex="1">
          <mxGeometry y="34" width="160" height="26" as="geometry" />
        </mxCell>
        <mxCell id="zvh0BNXRaEqvuYk_ANei-10" value="GUI" style="swimlane;fontStyle=1;align=center;verticalAlign=top;childLayout=stackLayout;horizontal=1;startSize=26;horizontalStack=0;resizeParent=1;resizeParentMax=0;resizeLast=0;collapsible=1;marginBottom=0;" parent="1" vertex="1" collapsed="1">
          <mxGeometry x="439" y="280" width="60" height="30" as="geometry">
            <mxRectangle x="240" y="390" width="160" height="270" as="alternateBounds" />
          </mxGeometry>
        </mxCell>
        <mxCell id="zvh0BNXRaEqvuYk_ANei-11" value="-popups&#xa;-colourMapping&#xa;-roundNum" style="text;strokeColor=none;fillColor=none;align=left;verticalAlign=top;spacingLeft=4;spacingRight=4;overflow=hidden;rotatable=0;points=[[0,0.5],[1,0.5]];portConstraint=eastwest;" parent="zvh0BNXRaEqvuYk_ANei-10" vertex="1">
          <mxGeometry y="26" width="160" height="54" as="geometry" />
        </mxCell>
        <mxCell id="zvh0BNXRaEqvuYk_ANei-12" value="" style="line;strokeWidth=1;fillColor=none;align=left;verticalAlign=middle;spacingTop=-1;spacingLeft=3;spacingRight=3;rotatable=0;labelPosition=right;points=[];portConstraint=eastwest;" parent="zvh0BNXRaEqvuYk_ANei-10" vertex="1">
          <mxGeometry y="80" width="160" height="8" as="geometry" />
        </mxCell>
        <mxCell id="zvh0BNXRaEqvuYk_ANei-13" value="+initRound()&#xa;+setPopups()&#xa;-getMove()&#xa;-getCode()&#xa;-displayBoard()&#xa;-getMessage()&#xa;-genColourMapping()&#xa;-displayRoundWinner()&#xa;-displayWinner()&#xa;-connectSignals()&#xa;+show()&#xa;+initUI()" style="text;strokeColor=none;fillColor=none;align=left;verticalAlign=top;spacingLeft=4;spacingRight=4;overflow=hidden;rotatable=0;points=[[0,0.5],[1,0.5]];portConstraint=eastwest;" parent="zvh0BNXRaEqvuYk_ANei-10" vertex="1">
          <mxGeometry y="88" width="160" height="182" as="geometry" />
        </mxCell>
        <mxCell id="zvh0BNXRaEqvuYk_ANei-28" value="Computer" style="swimlane;fontStyle=1;align=center;verticalAlign=top;childLayout=stackLayout;horizontal=1;startSize=26;horizontalStack=0;resizeParent=1;resizeParentMax=0;resizeLast=0;collapsible=1;marginBottom=0;" parent="1" vertex="1" collapsed="1">
          <mxGeometry x="284" y="200" width="100" height="30" as="geometry">
            <mxRectangle x="260" y="370" width="160" height="130" as="alternateBounds" />
          </mxGeometry>
        </mxCell>
        <mxCell id="zvh0BNXRaEqvuYk_ANei-29" value="-board&#xa;-algorithmType&#xa;-algorithm" style="text;strokeColor=none;fillColor=none;align=left;verticalAlign=top;spacingLeft=4;spacingRight=4;overflow=hidden;rotatable=0;points=[[0,0.5],[1,0.5]];portConstraint=eastwest;" parent="zvh0BNXRaEqvuYk_ANei-28" vertex="1">
          <mxGeometry y="26" width="160" height="54" as="geometry" />
        </mxCell>
        <mxCell id="zvh0BNXRaEqvuYk_ANei-30" value="" style="line;strokeWidth=1;fillColor=none;align=left;verticalAlign=middle;spacingTop=-1;spacingLeft=3;spacingRight=3;rotatable=0;labelPosition=right;points=[];portConstraint=eastwest;" parent="zvh0BNXRaEqvuYk_ANei-28" vertex="1">
          <mxGeometry y="80" width="160" height="8" as="geometry" />
        </mxCell>
        <mxCell id="zvh0BNXRaEqvuYk_ANei-31" value="-genAlgorithm()&#xa;-getPreviousResponse()" style="text;strokeColor=none;fillColor=none;align=left;verticalAlign=top;spacingLeft=4;spacingRight=4;overflow=hidden;rotatable=0;points=[[0,0.5],[1,0.5]];portConstraint=eastwest;" parent="zvh0BNXRaEqvuYk_ANei-28" vertex="1">
          <mxGeometry y="88" width="160" height="42" as="geometry" />
        </mxCell>
        <mxCell id="a4NBhfSJMRjFoHTR3aRK-1" value="Player" style="swimlane;fontStyle=1;align=center;verticalAlign=top;childLayout=stackLayout;horizontal=1;startSize=26;horizontalStack=0;resizeParent=1;resizeParentMax=0;resizeLast=0;collapsible=1;marginBottom=0;" parent="1" vertex="1" collapsed="1">
          <mxGeometry x="429" y="200" width="80" height="30" as="geometry">
            <mxRectangle x="219" y="390" width="160" height="200" as="alternateBounds" />
          </mxGeometry>
        </mxCell>
        <mxCell id="a4NBhfSJMRjFoHTR3aRK-2" value="-stats" style="text;strokeColor=none;fillColor=none;align=left;verticalAlign=top;spacingLeft=4;spacingRight=4;overflow=hidden;rotatable=0;points=[[0,0.5],[1,0.5]];portConstraint=eastwest;" parent="a4NBhfSJMRjFoHTR3aRK-1" vertex="1">
          <mxGeometry y="26" width="160" height="26" as="geometry" />
        </mxCell>
        <mxCell id="a4NBhfSJMRjFoHTR3aRK-3" value="" style="line;strokeWidth=1;fillColor=none;align=left;verticalAlign=middle;spacingTop=-1;spacingLeft=3;spacingRight=3;rotatable=0;labelPosition=right;points=[];portConstraint=eastwest;" parent="a4NBhfSJMRjFoHTR3aRK-1" vertex="1">
          <mxGeometry y="52" width="160" height="8" as="geometry" />
        </mxCell>
        <mxCell id="a4NBhfSJMRjFoHTR3aRK-4" value="+getUsername()&#xa;+getStats()&#xa;+updateStats()&#xa;+getMove()&#xa;+getCode()&#xa;+displayBoard()&#xa;+displayRoundWinner()&#xa;+displayWinner()&#xa;+displayRoundNumber()" style="text;strokeColor=none;fillColor=none;align=left;verticalAlign=top;spacingLeft=4;spacingRight=4;overflow=hidden;rotatable=0;points=[[0,0.5],[1,0.5]];portConstraint=eastwest;" parent="a4NBhfSJMRjFoHTR3aRK-1" vertex="1">
          <mxGeometry y="60" width="160" height="140" as="geometry" />
        </mxCell>
        <mxCell id="a4NBhfSJMRjFoHTR3aRK-9" value="ClientPlayer" style="swimlane;fontStyle=1;align=center;verticalAlign=top;childLayout=stackLayout;horizontal=1;startSize=26;horizontalStack=0;resizeParent=1;resizeParentMax=0;resizeLast=0;collapsible=1;marginBottom=0;" parent="1" vertex="1" collapsed="1">
          <mxGeometry x="414" y="360" width="110" height="30" as="geometry">
            <mxRectangle x="414" y="360" width="160" height="60" as="alternateBounds" />
          </mxGeometry>
        </mxCell>
        <mxCell id="a4NBhfSJMRjFoHTR3aRK-11" value="" style="line;strokeWidth=1;fillColor=none;align=left;verticalAlign=middle;spacingTop=-1;spacingLeft=3;spacingRight=3;rotatable=0;labelPosition=right;points=[];portConstraint=eastwest;" parent="a4NBhfSJMRjFoHTR3aRK-9" vertex="1">
          <mxGeometry y="26" width="160" height="8" as="geometry" />
        </mxCell>
        <mxCell id="a4NBhfSJMRjFoHTR3aRK-12" value="+playGame()" style="text;strokeColor=none;fillColor=none;align=left;verticalAlign=top;spacingLeft=4;spacingRight=4;overflow=hidden;rotatable=0;points=[[0,0.5],[1,0.5]];portConstraint=eastwest;" parent="a4NBhfSJMRjFoHTR3aRK-9" vertex="1">
          <mxGeometry y="34" width="160" height="26" as="geometry" />
        </mxCell>
        <mxCell id="a4NBhfSJMRjFoHTR3aRK-17" value="ServerPlayer" style="swimlane;fontStyle=1;align=center;verticalAlign=top;childLayout=stackLayout;horizontal=1;startSize=26;horizontalStack=0;resizeParent=1;resizeParentMax=0;resizeLast=0;collapsible=1;marginBottom=0;" parent="1" vertex="1" collapsed="1">
          <mxGeometry x="570" y="280" width="110" height="30" as="geometry">
            <mxRectangle x="570" y="280" width="160" height="60" as="alternateBounds" />
          </mxGeometry>
        </mxCell>
        <mxCell id="a4NBhfSJMRjFoHTR3aRK-19" value="" style="line;strokeWidth=1;fillColor=none;align=left;verticalAlign=middle;spacingTop=-1;spacingLeft=3;spacingRight=3;rotatable=0;labelPosition=right;points=[];portConstraint=eastwest;" parent="a4NBhfSJMRjFoHTR3aRK-17" vertex="1">
          <mxGeometry y="26" width="160" height="8" as="geometry" />
        </mxCell>
        <mxCell id="a4NBhfSJMRjFoHTR3aRK-20" value="+disconnect()" style="text;strokeColor=none;fillColor=none;align=left;verticalAlign=top;spacingLeft=4;spacingRight=4;overflow=hidden;rotatable=0;points=[[0,0.5],[1,0.5]];portConstraint=eastwest;" parent="a4NBhfSJMRjFoHTR3aRK-17" vertex="1">
          <mxGeometry y="34" width="160" height="26" as="geometry" />
        </mxCell>
        <mxCell id="4D1YSKRCDHBC9nBtYqDq-3" value="" style="endArrow=block;endSize=16;endFill=0;html=1;rounded=0;" parent="1" source="zvh0BNXRaEqvuYk_ANei-6" target="a4NBhfSJMRjFoHTR3aRK-1" edge="1">
          <mxGeometry width="160" relative="1" as="geometry">
            <mxPoint x="-16" y="735" as="sourcePoint" />
            <mxPoint x="144" y="735" as="targetPoint" />
            <Array as="points" />
          </mxGeometry>
        </mxCell>
        <mxCell id="4D1YSKRCDHBC9nBtYqDq-6" value="" style="endArrow=block;endSize=16;endFill=0;html=1;rounded=0;" parent="1" source="zvh0BNXRaEqvuYk_ANei-28" target="a4NBhfSJMRjFoHTR3aRK-1" edge="1">
          <mxGeometry width="160" relative="1" as="geometry">
            <mxPoint x="334" y="337" as="sourcePoint" />
            <mxPoint x="414" y="220" as="targetPoint" />
            <Array as="points" />
          </mxGeometry>
        </mxCell>
        <mxCell id="4D1YSKRCDHBC9nBtYqDq-10" value="Statistics" style="swimlane;fontStyle=1;align=center;verticalAlign=top;childLayout=stackLayout;horizontal=1;startSize=26;horizontalStack=0;resizeParent=1;resizeParentMax=0;resizeLast=0;collapsible=1;marginBottom=0;" parent="1" vertex="1" collapsed="1">
          <mxGeometry x="581" y="200" width="90" height="30" as="geometry">
            <mxRectangle x="660" y="190" width="160" height="138" as="alternateBounds" />
          </mxGeometry>
        </mxCell>
        <mxCell id="4D1YSKRCDHBC9nBtYqDq-11" value="+username&#xa;+wins&#xa;+losses&#xa;+draws&#xa;+totalGames&#xa;+roundsPlayed&#xa;+timePlayed" style="text;strokeColor=none;fillColor=none;align=left;verticalAlign=top;spacingLeft=4;spacingRight=4;overflow=hidden;rotatable=0;points=[[0,0.5],[1,0.5]];portConstraint=eastwest;" parent="4D1YSKRCDHBC9nBtYqDq-10" vertex="1">
          <mxGeometry y="26" width="160" height="104" as="geometry" />
        </mxCell>
        <mxCell id="4D1YSKRCDHBC9nBtYqDq-12" value="" style="line;strokeWidth=1;fillColor=none;align=left;verticalAlign=middle;spacingTop=-1;spacingLeft=3;spacingRight=3;rotatable=0;labelPosition=right;points=[];portConstraint=eastwest;" parent="4D1YSKRCDHBC9nBtYqDq-10" vertex="1">
          <mxGeometry y="130" width="160" height="8" as="geometry" />
        </mxCell>
        <mxCell id="4D1YSKRCDHBC9nBtYqDq-15" value="" style="endArrow=diamondThin;endFill=1;endSize=24;html=1;rounded=0;" parent="1" source="4D1YSKRCDHBC9nBtYqDq-10" target="a4NBhfSJMRjFoHTR3aRK-1" edge="1">
          <mxGeometry width="160" relative="1" as="geometry">
            <mxPoint x="684" y="579" as="sourcePoint" />
            <mxPoint x="334" y="540" as="targetPoint" />
            <Array as="points" />
          </mxGeometry>
        </mxCell>
        <mxCell id="M8xaA3jgXzXwJ5VbGbtO-2" value="" style="endArrow=diamondThin;endFill=1;endSize=24;html=1;rounded=0;" parent="1" source="M8xaA3jgXzXwJ5VbGbtO-3" target="zvh0BNXRaEqvuYk_ANei-2" edge="1">
          <mxGeometry width="160" relative="1" as="geometry">
            <mxPoint x="624" y="873" as="sourcePoint" />
            <mxPoint x="404" y="862.6000000000004" as="targetPoint" />
            <Array as="points" />
          </mxGeometry>
        </mxCell>
        <mxCell id="M8xaA3jgXzXwJ5VbGbtO-3" value="Board" style="swimlane;fontStyle=1;align=center;verticalAlign=top;childLayout=stackLayout;horizontal=1;startSize=26;horizontalStack=0;resizeParent=1;resizeParentMax=0;resizeLast=0;collapsible=1;marginBottom=0;" parent="1" vertex="1" collapsed="1">
          <mxGeometry x="294" y="120" width="80" height="30" as="geometry">
            <mxRectangle x="224" y="420" width="160" height="350" as="alternateBounds" />
          </mxGeometry>
        </mxCell>
        <mxCell id="M8xaA3jgXzXwJ5VbGbtO-4" value="-lenOfGuess&#xa;-totalGuesses&#xa;-duplicatesAllowed&#xa;-colourNums&#xa;-resultNums&#xa;-guessPointer&#xa;-guesses&#xa;-results&#xa;-code" style="text;strokeColor=none;fillColor=none;align=left;verticalAlign=top;spacingLeft=4;spacingRight=4;overflow=hidden;rotatable=0;points=[[0,0.5],[1,0.5]];portConstraint=eastwest;" parent="M8xaA3jgXzXwJ5VbGbtO-3" vertex="1">
          <mxGeometry y="26" width="160" height="134" as="geometry" />
        </mxCell>
        <mxCell id="M8xaA3jgXzXwJ5VbGbtO-5" value="" style="line;strokeWidth=1;fillColor=none;align=left;verticalAlign=middle;spacingTop=-1;spacingLeft=3;spacingRight=3;rotatable=0;labelPosition=right;points=[];portConstraint=eastwest;" parent="M8xaA3jgXzXwJ5VbGbtO-3" vertex="1">
          <mxGeometry y="160" width="160" height="8" as="geometry" />
        </mxCell>
        <mxCell id="M8xaA3jgXzXwJ5VbGbtO-6" value="+getColours()&#xa;+getResultColours()&#xa;+getLenOfGuess()&#xa;+getTotalGuesses()&#xa;+getRemainingGuesses()&#xa;+getDuplicatesAllowed()&#xa;+makeGuess()&#xa;-genGuessResult()&#xa;+getGuesses()&#xa;+getResults()&#xa;+setCode()&#xa;+getCode()" style="text;strokeColor=none;fillColor=none;align=left;verticalAlign=top;spacingLeft=4;spacingRight=4;overflow=hidden;rotatable=0;points=[[0,0.5],[1,0.5]];portConstraint=eastwest;" parent="M8xaA3jgXzXwJ5VbGbtO-3" vertex="1">
          <mxGeometry y="168" width="160" height="182" as="geometry" />
        </mxCell>
        <mxCell id="waAP4hCyBEqmokX73J-E-1" value="" style="endArrow=block;endSize=16;endFill=0;html=1;rounded=0;" parent="1" source="zvh0BNXRaEqvuYk_ANei-10" target="a4NBhfSJMRjFoHTR3aRK-1" edge="1">
          <mxGeometry width="160" relative="1" as="geometry">
            <mxPoint x="274" y="890" as="sourcePoint" />
            <mxPoint x="274" y="816" as="targetPoint" />
            <Array as="points" />
          </mxGeometry>
        </mxCell>
        <mxCell id="HEcjyZ8CbeDTqWJ0e1cW-1" value="UI" style="swimlane;fontStyle=1;align=center;verticalAlign=top;childLayout=stackLayout;horizontal=1;startSize=26;horizontalStack=0;resizeParent=1;resizeParentMax=0;resizeLast=0;collapsible=1;marginBottom=0;" parent="1" vertex="1" collapsed="1">
          <mxGeometry x="444" y="30" width="50" height="30" as="geometry">
            <mxRectangle x="434" y="10" width="160" height="164" as="alternateBounds" />
          </mxGeometry>
        </mxCell>
        <mxCell id="HEcjyZ8CbeDTqWJ0e1cW-2" value="-length&#xa;-numGuesses&#xa;-numRounds&#xa;-duplicatesAllowed&#xa;-colourNum&#xa;-computerAlgorithmType&#xa;-dbm" style="text;strokeColor=none;fillColor=none;align=left;verticalAlign=top;spacingLeft=4;spacingRight=4;overflow=hidden;rotatable=0;points=[[0,0.5],[1,0.5]];portConstraint=eastwest;" parent="HEcjyZ8CbeDTqWJ0e1cW-1" vertex="1">
          <mxGeometry y="26" width="160" height="104" as="geometry" />
        </mxCell>
        <mxCell id="HEcjyZ8CbeDTqWJ0e1cW-3" value="" style="line;strokeWidth=1;fillColor=none;align=left;verticalAlign=middle;spacingTop=-1;spacingLeft=3;spacingRight=3;rotatable=0;labelPosition=right;points=[];portConstraint=eastwest;" parent="HEcjyZ8CbeDTqWJ0e1cW-1" vertex="1">
          <mxGeometry y="130" width="160" height="8" as="geometry" />
        </mxCell>
        <mxCell id="HEcjyZ8CbeDTqWJ0e1cW-4" value="+run()" style="text;strokeColor=none;fillColor=none;align=left;verticalAlign=top;spacingLeft=4;spacingRight=4;overflow=hidden;rotatable=0;points=[[0,0.5],[1,0.5]];portConstraint=eastwest;" parent="HEcjyZ8CbeDTqWJ0e1cW-1" vertex="1">
          <mxGeometry y="138" width="160" height="26" as="geometry" />
        </mxCell>
        <mxCell id="HEcjyZ8CbeDTqWJ0e1cW-5" value="" style="endArrow=block;endSize=16;endFill=0;html=1;rounded=0;" parent="1" source="HEcjyZ8CbeDTqWJ0e1cW-6" target="HEcjyZ8CbeDTqWJ0e1cW-1" edge="1">
          <mxGeometry width="160" relative="1" as="geometry">
            <mxPoint x="350" y="70" as="sourcePoint" />
            <mxPoint x="444" y="383" as="targetPoint" />
            <Array as="points" />
          </mxGeometry>
        </mxCell>
        <mxCell id="HEcjyZ8CbeDTqWJ0e1cW-6" value="Terminal" style="swimlane;fontStyle=1;align=center;verticalAlign=top;childLayout=stackLayout;horizontal=1;startSize=26;horizontalStack=0;resizeParent=1;resizeParentMax=0;resizeLast=0;collapsible=1;marginBottom=0;" parent="1" vertex="1" collapsed="1">
          <mxGeometry x="284" y="30" width="90" height="30" as="geometry">
            <mxRectangle x="224" y="42" width="160" height="100" as="alternateBounds" />
          </mxGeometry>
        </mxCell>
        <mxCell id="HEcjyZ8CbeDTqWJ0e1cW-8" value="" style="line;strokeWidth=1;fillColor=none;align=left;verticalAlign=middle;spacingTop=-1;spacingLeft=3;spacingRight=3;rotatable=0;labelPosition=right;points=[];portConstraint=eastwest;" parent="HEcjyZ8CbeDTqWJ0e1cW-6" vertex="1">
          <mxGeometry y="26" width="160" height="8" as="geometry" />
        </mxCell>
        <mxCell id="HEcjyZ8CbeDTqWJ0e1cW-9" value="+setup()&#xa;+loginUser()&#xa;+registerUser()&#xa;+getPlayer()" style="text;strokeColor=none;fillColor=none;align=left;verticalAlign=top;spacingLeft=4;spacingRight=4;overflow=hidden;rotatable=0;points=[[0,0.5],[1,0.5]];portConstraint=eastwest;" parent="HEcjyZ8CbeDTqWJ0e1cW-6" vertex="1">
          <mxGeometry y="34" width="160" height="66" as="geometry" />
        </mxCell>
        <mxCell id="HEcjyZ8CbeDTqWJ0e1cW-11" value="" style="endArrow=diamondThin;endFill=1;endSize=24;html=1;rounded=0;" parent="1" source="zvh0BNXRaEqvuYk_ANei-2" target="HEcjyZ8CbeDTqWJ0e1cW-1" edge="1">
          <mxGeometry width="160" relative="1" as="geometry">
            <mxPoint x="704" y="453" as="sourcePoint" />
            <mxPoint x="514" y="404" as="targetPoint" />
            <Array as="points" />
          </mxGeometry>
        </mxCell>
        <mxCell id="HEcjyZ8CbeDTqWJ0e1cW-12" value="GUI" style="swimlane;fontStyle=1;align=center;verticalAlign=top;childLayout=stackLayout;horizontal=1;startSize=26;horizontalStack=0;resizeParent=1;resizeParentMax=0;resizeLast=0;collapsible=1;marginBottom=0;" parent="1" vertex="1" collapsed="1">
          <mxGeometry x="581" y="30" width="60" height="30" as="geometry">
            <mxRectangle x="654" y="-63" width="160" height="310" as="alternateBounds" />
          </mxGeometry>
        </mxCell>
        <mxCell id="HEcjyZ8CbeDTqWJ0e1cW-14" value="" style="line;strokeWidth=1;fillColor=none;align=left;verticalAlign=middle;spacingTop=-1;spacingLeft=3;spacingRight=3;rotatable=0;labelPosition=right;points=[];portConstraint=eastwest;" parent="HEcjyZ8CbeDTqWJ0e1cW-12" vertex="1">
          <mxGeometry y="26" width="160" height="8" as="geometry" />
        </mxCell>
        <mxCell id="HEcjyZ8CbeDTqWJ0e1cW-15" value="+initUI()&#xa;-setupLoginPage()&#xa;-setupModePage()&#xa;+showLoginPage()&#xa;+showWelcomePage()&#xa;+showRulesPage()&#xa;+showModePage()&#xa;+showReadyPage()&#xa;+showAdvancedSetupPage()&#xa;+showJoinOnlineMultiplayerPage()&#xa;+setMode()&#xa;+setValuesFromAdvanced()&#xa;+tryLogin()&#xa;+tryRegister()&#xa;+initGame()&#xa;+joinGame()&#xa;+startGame()&#xa;+gameOver()&#xa;+timedModeOver()" style="text;strokeColor=none;fillColor=none;align=left;verticalAlign=top;spacingLeft=4;spacingRight=4;overflow=hidden;rotatable=0;points=[[0,0.5],[1,0.5]];portConstraint=eastwest;" parent="HEcjyZ8CbeDTqWJ0e1cW-12" vertex="1">
          <mxGeometry y="34" width="160" height="276" as="geometry" />
        </mxCell>
        <mxCell id="HEcjyZ8CbeDTqWJ0e1cW-16" value="" style="endArrow=block;endSize=16;endFill=0;html=1;rounded=0;" parent="1" source="HEcjyZ8CbeDTqWJ0e1cW-12" target="HEcjyZ8CbeDTqWJ0e1cW-1" edge="1">
          <mxGeometry width="160" relative="1" as="geometry">
            <mxPoint x="324" y="63" as="sourcePoint" />
            <mxPoint x="404" y="63" as="targetPoint" />
            <Array as="points" />
          </mxGeometry>
        </mxCell>
        <mxCell id="2" value="Algorithm" style="swimlane;fontStyle=1;align=center;verticalAlign=top;childLayout=stackLayout;horizontal=1;startSize=26;horizontalStack=0;resizeParent=1;resizeParentMax=0;resizeLast=0;collapsible=1;marginBottom=0;" parent="1" vertex="1" collapsed="1">
          <mxGeometry x="110" y="200" width="100" height="30" as="geometry">
            <mxRectangle x="269" y="400" width="160" height="114" as="alternateBounds" />
          </mxGeometry>
        </mxCell>
        <mxCell id="3" value="-lengthOfCode&#xa;-colourOptions&#xa;-duplicatesAllowed" style="text;strokeColor=none;fillColor=none;align=left;verticalAlign=top;spacingLeft=4;spacingRight=4;overflow=hidden;rotatable=0;points=[[0,0.5],[1,0.5]];portConstraint=eastwest;" parent="2" vertex="1">
          <mxGeometry y="26" width="160" height="54" as="geometry" />
        </mxCell>
        <mxCell id="4" value="" style="line;strokeWidth=1;fillColor=none;align=left;verticalAlign=middle;spacingTop=-1;spacingLeft=3;spacingRight=3;rotatable=0;labelPosition=right;points=[];portConstraint=eastwest;" parent="2" vertex="1">
          <mxGeometry y="80" width="160" height="8" as="geometry" />
        </mxCell>
        <mxCell id="5" value="+getNextGuess()" style="text;strokeColor=none;fillColor=none;align=left;verticalAlign=top;spacingLeft=4;spacingRight=4;overflow=hidden;rotatable=0;points=[[0,0.5],[1,0.5]];portConstraint=eastwest;" parent="2" vertex="1">
          <mxGeometry y="88" width="160" height="26" as="geometry" />
        </mxCell>
        <mxCell id="7" value="" style="endArrow=diamondThin;endFill=1;endSize=24;html=1;rounded=0;" parent="1" source="2" target="zvh0BNXRaEqvuYk_ANei-28" edge="1">
          <mxGeometry width="160" relative="1" as="geometry">
            <mxPoint x="450" y="334" as="sourcePoint" />
            <mxPoint x="450" y="260" as="targetPoint" />
            <Array as="points" />
          </mxGeometry>
        </mxCell>
        <mxCell id="8" value="Knuths" style="swimlane;fontStyle=1;align=center;verticalAlign=top;childLayout=stackLayout;horizontal=1;startSize=26;horizontalStack=0;resizeParent=1;resizeParentMax=0;resizeLast=0;collapsible=1;marginBottom=0;" parent="1" vertex="1" collapsed="1">
          <mxGeometry x="120" y="360" width="80" height="30" as="geometry">
            <mxRectangle x="120" y="360" width="160" height="100" as="alternateBounds" />
          </mxGeometry>
        </mxCell>
        <mxCell id="9" value="-C" style="text;strokeColor=none;fillColor=none;align=left;verticalAlign=top;spacingLeft=4;spacingRight=4;overflow=hidden;rotatable=0;points=[[0,0.5],[1,0.5]];portConstraint=eastwest;" parent="8" vertex="1">
          <mxGeometry y="26" width="160" height="26" as="geometry" />
        </mxCell>
        <mxCell id="10" value="" style="line;strokeWidth=1;fillColor=none;align=left;verticalAlign=middle;spacingTop=-1;spacingLeft=3;spacingRight=3;rotatable=0;labelPosition=right;points=[];portConstraint=eastwest;" parent="8" vertex="1">
          <mxGeometry y="52" width="160" height="8" as="geometry" />
        </mxCell>
        <mxCell id="11" value="-calcScore()&#xa;-genPossibleResponses()" style="text;strokeColor=none;fillColor=none;align=left;verticalAlign=top;spacingLeft=4;spacingRight=4;overflow=hidden;rotatable=0;points=[[0,0.5],[1,0.5]];portConstraint=eastwest;" parent="8" vertex="1">
          <mxGeometry y="60" width="160" height="40" as="geometry" />
        </mxCell>
        <mxCell id="12" value="RandomConsistent" style="swimlane;fontStyle=1;align=center;verticalAlign=top;childLayout=stackLayout;horizontal=1;startSize=26;horizontalStack=0;resizeParent=1;resizeParentMax=0;resizeLast=0;collapsible=1;marginBottom=0;" parent="1" vertex="1" collapsed="1">
          <mxGeometry x="85" y="280" width="150" height="30" as="geometry">
            <mxRectangle x="269" y="410" width="281" height="150" as="alternateBounds" />
          </mxGeometry>
        </mxCell>
        <mxCell id="13" value="-previousGuess&#xa;-S" style="text;strokeColor=none;fillColor=none;align=left;verticalAlign=top;spacingLeft=4;spacingRight=4;overflow=hidden;rotatable=0;points=[[0,0.5],[1,0.5]];portConstraint=eastwest;" parent="12" vertex="1">
          <mxGeometry y="26" width="281" height="34" as="geometry" />
        </mxCell>
        <mxCell id="14" value="" style="line;strokeWidth=1;fillColor=none;align=left;verticalAlign=middle;spacingTop=-1;spacingLeft=3;spacingRight=3;rotatable=0;labelPosition=right;points=[];portConstraint=eastwest;" parent="12" vertex="1">
          <mxGeometry y="60" width="281" height="8" as="geometry" />
        </mxCell>
        <mxCell id="15" value="-genInitialGuess()&#xa;-cycle()&#xa;-genNextGuess()&#xa;-getGuessesThatWouldNotGiveSameResponse()&#xa;-getResponse()" style="text;strokeColor=none;fillColor=none;align=left;verticalAlign=top;spacingLeft=4;spacingRight=4;overflow=hidden;rotatable=0;points=[[0,0.5],[1,0.5]];portConstraint=eastwest;" parent="12" vertex="1">
          <mxGeometry y="68" width="281" height="82" as="geometry" />
        </mxCell>
        <mxCell id="16" value="Random" style="swimlane;fontStyle=1;align=center;verticalAlign=top;childLayout=stackLayout;horizontal=1;startSize=26;horizontalStack=0;resizeParent=1;resizeParentMax=0;resizeLast=0;collapsible=1;marginBottom=0;" parent="1" vertex="1" collapsed="1">
          <mxGeometry x="115" y="130" width="90" height="30" as="geometry">
            <mxRectangle x="115" y="130" width="160" height="34" as="alternateBounds" />
          </mxGeometry>
        </mxCell>
        <mxCell id="18" value="" style="line;strokeWidth=1;fillColor=none;align=left;verticalAlign=middle;spacingTop=-1;spacingLeft=3;spacingRight=3;rotatable=0;labelPosition=right;points=[];portConstraint=eastwest;" parent="16" vertex="1">
          <mxGeometry y="26" width="160" height="8" as="geometry" />
        </mxCell>
        <mxCell id="20" value="" style="endArrow=block;endSize=16;endFill=0;html=1;rounded=0;" parent="1" source="16" target="2" edge="1">
          <mxGeometry width="160" relative="1" as="geometry">
            <mxPoint x="424" y="413" as="sourcePoint" />
            <mxPoint x="474" y="413" as="targetPoint" />
            <Array as="points" />
          </mxGeometry>
        </mxCell>
        <mxCell id="21" value="" style="endArrow=block;endSize=16;endFill=0;html=1;rounded=0;" parent="1" source="12" target="2" edge="1">
          <mxGeometry width="160" relative="1" as="geometry">
            <mxPoint x="434" y="423" as="sourcePoint" />
            <mxPoint x="484" y="423" as="targetPoint" />
            <Array as="points" />
          </mxGeometry>
        </mxCell>
        <mxCell id="22" value="" style="endArrow=block;endSize=16;endFill=0;html=1;rounded=0;" parent="1" source="8" target="12" edge="1">
          <mxGeometry width="160" relative="1" as="geometry">
            <mxPoint x="444" y="433" as="sourcePoint" />
            <mxPoint x="494" y="433" as="targetPoint" />
            <Array as="points" />
          </mxGeometry>
        </mxCell>
        <mxCell id="s7LuWK3ZWGFxY6d3zz2t-22" value="SocketManager" style="swimlane;fontStyle=1;align=center;verticalAlign=top;childLayout=stackLayout;horizontal=1;startSize=26;horizontalStack=0;resizeParent=1;resizeParentMax=0;resizeLast=0;collapsible=1;marginBottom=0;" vertex="1" collapsed="1" parent="1">
          <mxGeometry x="560" y="360" width="130" height="30" as="geometry">
            <mxRectangle x="560" y="360" width="160" height="298" as="alternateBounds" />
          </mxGeometry>
        </mxCell>
        <mxCell id="s7LuWK3ZWGFxY6d3zz2t-23" value="+host&#xa;+port&#xa;+socket" style="text;strokeColor=none;fillColor=none;align=left;verticalAlign=top;spacingLeft=4;spacingRight=4;overflow=hidden;rotatable=0;points=[[0,0.5],[1,0.5]];portConstraint=eastwest;" vertex="1" parent="s7LuWK3ZWGFxY6d3zz2t-22">
          <mxGeometry y="26" width="160" height="54" as="geometry" />
        </mxCell>
        <mxCell id="s7LuWK3ZWGFxY6d3zz2t-24" value="" style="line;strokeWidth=1;fillColor=none;align=left;verticalAlign=middle;spacingTop=-1;spacingLeft=3;spacingRight=3;rotatable=0;labelPosition=right;points=[];portConstraint=eastwest;" vertex="1" parent="s7LuWK3ZWGFxY6d3zz2t-22">
          <mxGeometry y="80" width="160" height="8" as="geometry" />
        </mxCell>
        <mxCell id="s7LuWK3ZWGFxY6d3zz2t-25" value="-createUnboundSocket()&#xa;-createServerSocket()&#xa;-createClientSocket()&#xa;-send()&#xa;-receiveData()&#xa;-sendMessage()&#xa;-receiveMessage()&#xa;+sendMessage()&#xa;+receiveMessage()&#xa;+splitData()&#xa;+getEnumFromStr()&#xa;-pickleData()&#xa;-unpickleData()&#xa;+close()" style="text;strokeColor=none;fillColor=none;align=left;verticalAlign=top;spacingLeft=4;spacingRight=4;overflow=hidden;rotatable=0;points=[[0,0.5],[1,0.5]];portConstraint=eastwest;" vertex="1" parent="s7LuWK3ZWGFxY6d3zz2t-22">
          <mxGeometry y="88" width="160" height="210" as="geometry" />
        </mxCell>
        <mxCell id="s7LuWK3ZWGFxY6d3zz2t-26" value="" style="endArrow=block;endSize=16;endFill=0;html=1;rounded=0;" edge="1" parent="1" source="a4NBhfSJMRjFoHTR3aRK-17" target="a4NBhfSJMRjFoHTR3aRK-1">
          <mxGeometry width="160" relative="1" as="geometry">
            <mxPoint x="554" y="530" as="sourcePoint" />
            <mxPoint x="554" y="456" as="targetPoint" />
            <Array as="points" />
          </mxGeometry>
        </mxCell>
        <mxCell id="s7LuWK3ZWGFxY6d3zz2t-27" value="" style="endArrow=block;endSize=16;endFill=0;html=1;rounded=0;" edge="1" parent="1" source="a4NBhfSJMRjFoHTR3aRK-17" target="s7LuWK3ZWGFxY6d3zz2t-22">
          <mxGeometry width="160" relative="1" as="geometry">
            <mxPoint x="575" y="540" as="sourcePoint" />
            <mxPoint x="575" y="466" as="targetPoint" />
            <Array as="points" />
          </mxGeometry>
        </mxCell>
        <mxCell id="s7LuWK3ZWGFxY6d3zz2t-28" value="" style="endArrow=block;endSize=16;endFill=0;html=1;rounded=0;" edge="1" parent="1" source="a4NBhfSJMRjFoHTR3aRK-9" target="zvh0BNXRaEqvuYk_ANei-10">
          <mxGeometry width="160" relative="1" as="geometry">
            <mxPoint x="540" y="640" as="sourcePoint" />
            <mxPoint x="610" y="620" as="targetPoint" />
            <Array as="points" />
          </mxGeometry>
        </mxCell>
        <mxCell id="s7LuWK3ZWGFxY6d3zz2t-29" value="" style="endArrow=block;endSize=16;endFill=0;html=1;rounded=0;" edge="1" parent="1" source="a4NBhfSJMRjFoHTR3aRK-9" target="s7LuWK3ZWGFxY6d3zz2t-22">
          <mxGeometry width="160" relative="1" as="geometry">
            <mxPoint x="584" y="560" as="sourcePoint" />
            <mxPoint x="584" y="486" as="targetPoint" />
            <Array as="points" />
          </mxGeometry>
        </mxCell>
        <mxCell id="s7LuWK3ZWGFxY6d3zz2t-30" value="" style="endArrow=diamondThin;endFill=1;endSize=24;html=1;rounded=0;" edge="1" parent="1" source="a4NBhfSJMRjFoHTR3aRK-1" target="zvh0BNXRaEqvuYk_ANei-2">
          <mxGeometry width="160" relative="1" as="geometry">
            <mxPoint x="580" y="137" as="sourcePoint" />
            <mxPoint x="514" y="137" as="targetPoint" />
            <Array as="points" />
          </mxGeometry>
        </mxCell>
        <mxCell id="s7LuWK3ZWGFxY6d3zz2t-33" value="dataBaseManager" style="swimlane;fontStyle=1;align=center;verticalAlign=top;childLayout=stackLayout;horizontal=1;startSize=26;horizontalStack=0;resizeParent=1;resizeParentMax=0;resizeLast=0;collapsible=1;marginBottom=0;" vertex="1" collapsed="1" parent="1">
          <mxGeometry x="560" y="120" width="130" height="30" as="geometry">
            <mxRectangle x="680" y="74" width="160" height="170" as="alternateBounds" />
          </mxGeometry>
        </mxCell>
        <mxCell id="s7LuWK3ZWGFxY6d3zz2t-34" value="+db" style="text;strokeColor=none;fillColor=none;align=left;verticalAlign=top;spacingLeft=4;spacingRight=4;overflow=hidden;rotatable=0;points=[[0,0.5],[1,0.5]];portConstraint=eastwest;" vertex="1" parent="s7LuWK3ZWGFxY6d3zz2t-33">
          <mxGeometry y="26" width="160" height="26" as="geometry" />
        </mxCell>
        <mxCell id="s7LuWK3ZWGFxY6d3zz2t-35" value="" style="line;strokeWidth=1;fillColor=none;align=left;verticalAlign=middle;spacingTop=-1;spacingLeft=3;spacingRight=3;rotatable=0;labelPosition=right;points=[];portConstraint=eastwest;" vertex="1" parent="s7LuWK3ZWGFxY6d3zz2t-33">
          <mxGeometry y="52" width="160" height="8" as="geometry" />
        </mxCell>
        <mxCell id="s7LuWK3ZWGFxY6d3zz2t-36" value="+register()&#xa;+login()&#xa;+createStatsTable()&#xa;+createEmptyStatsTable()&#xa;+saveStatsTable()&#xa;+savePastGames()&#xa;+getPastGames()" style="text;strokeColor=none;fillColor=none;align=left;verticalAlign=top;spacingLeft=4;spacingRight=4;overflow=hidden;rotatable=0;points=[[0,0.5],[1,0.5]];portConstraint=eastwest;" vertex="1" parent="s7LuWK3ZWGFxY6d3zz2t-33">
          <mxGeometry y="60" width="160" height="110" as="geometry" />
        </mxCell>
        <mxCell id="s7LuWK3ZWGFxY6d3zz2t-37" value="" style="endArrow=diamondThin;endFill=1;endSize=24;html=1;rounded=0;" edge="1" parent="1" source="s7LuWK3ZWGFxY6d3zz2t-33" target="HEcjyZ8CbeDTqWJ0e1cW-1">
          <mxGeometry width="160" relative="1" as="geometry">
            <mxPoint x="600" y="172.66081871345023" as="sourcePoint" />
            <mxPoint x="504" y="167.046783625731" as="targetPoint" />
            <Array as="points" />
          </mxGeometry>
        </mxCell>
        <mxCell id="s7LuWK3ZWGFxY6d3zz2t-38" value="Creates" style="endArrow=block;dashed=1;endFill=0;endSize=12;html=1;rounded=0;" edge="1" parent="1" source="s7LuWK3ZWGFxY6d3zz2t-33" target="4D1YSKRCDHBC9nBtYqDq-10">
          <mxGeometry width="160" relative="1" as="geometry">
            <mxPoint x="400" y="220" as="sourcePoint" />
            <mxPoint x="560" y="220" as="targetPoint" />
          </mxGeometry>
        </mxCell>
      </root>
    </mxGraphModel>
  </diagram>
</mxfile>
